<svg xmlns="http://www.w3.org/2000/svg" version="1.2" baseProfile="tiny" width="810" height="502" viewBox="0 0 810 502" stroke-linecap="round" stroke-linejoin="round">
<style>.county-shape{cursor:pointer;transition:fill 0.3s;stroke:#2a2a2a;stroke-width:1}.county-shape:hover{stroke:#ff5a1f!important;stroke-width:2!important}</style>
<g id="cty-massachusetts" data-county="Massachusetts" class="county-shape" stroke="#2a2a2a" stroke-width="1">
<path d="M 359.69 53.57 393.36 54.93 462.38 57.16 480.1 57.71 484.88 57.99 492.8 58.03 496.16 53.76 498.57 49.38 501.36 46.16 505.11 65.83 504.22 68.35 501.21 69.91 519.86 81.98 517.76 84.43 521.4 87.51 522.76 83.04 524.96 82.97 526.17 85.69 527.89 87.15 540.96 85.59 544.66 84.92 550.29 91.11 551.56 94.52 549.99 95.67 548.65 94.71 546.83 95.44 545.19 94.59 543.5 98.13 542.17 100 541.29 107.43 542.97 109.32 545.2 109.46 548.84 108.82 549.19 112.32 550.22 114.64 548.27 116.31 549.13 117.87 547.97 120.04 546.33 120.84 546 123.58 552.32 133.16 553.54 135.08 550.69 142.53 549.06 146.01 547.47 147.55 545.9 150.41 543.6 150.57 541.86 149.02 540.28 152.24 541.4 152.49 542.12 154.74 543.31 154.98 540.93 158.9 538.04 160.21 535.1 160.82 532.32 159.95 532.22 156.37 529.78 154.52 528.86 155.93 525.34 158.26 521.9 159.05 521.07 158.59 519.49 161.53 521.3 164.58 521.12 166.55 523.45 167.45 518.62 172.27 521.78 175.39 518.71 178.16 515.92 181.64 512.82 179.68 511.02 174.73 508.04 174.12 507.69 170.95 505.43 170.08 503.58 170.31 498.44 168.22 485.2 172.76 486.56 177.41 489.95 185.38 491.19 192.08 484.63 191.86 485.31 192.98 485.26 196.56 482.76 199.21 483.29 201.47 480.77 202.36 480.3 204.32 482.07 206.31 478.12 207.79 474.48 208.48 468.7 210 469.18 212.87 464.46 213.08 462.99 212.7 459.9 214.05 455.48 219.04 452.34 219.46 452.36 216.75 448.07 216.52 446.9 209.12 445.95 209.86 438.76 209.62 435.11 211.77 434.88 208.8 431.44 208.72 429.08 207.87 424.8 201.13 428.24 188.76 433.17 186.57 434.94 186.2 438.7 187.79 440.33 186.8 444.41 186.36 446.05 187.35 446.18 184.76 450.6 173.33 450.78 169.76 450.41 167.66 445.66 168.34 443.82 167.62 436.16 168.79 432.18 170.59 428.6 173.4 425.91 170.39 424.17 167.66 424.43 165.68 421.29 163.94 419.62 161.81 423.13 159.52 424.67 156.57 423.63 155.75 429.75 150.68 424.42 147.48 428.62 144.68 434.41 143.24 437.89 126.96 434.14 124.59 439.79 112.95 440.55 110.85 438.92 104.08 429.76 101.85 426.59 103.97 423.68 103.36 421.01 101.23 419.12 102.57 417.48 104.96 416.75 107.66 417.48 109.74 407.97 107.8 408.25 105.12 411.19 83.56 386.71 73.75 386.79 76.01 371.47 75.56 368.46 76.79 368.96 66.69 368.67 64.5 360.04 55.87 359.69 53.57 Z" id="cty-middlesex" data-county="Middlesex" class="county-shape" fill="#1d1d1d" />
<path d="M 596.26 384.44 599.01 385.6 599.67 388.85 597.62 389.55 595.72 386.26 596.26 384.44 Z M 473.88 270.73 477.7 270.66 494.62 261.92 540.75 237.53 547.85 277.05 556.56 283.88 559.94 288.35 559.6 290.85 560.75 291.17 561.82 294.08 564.13 303.23 564.92 307.49 559.99 311.66 550.97 320.82 555.9 325.85 553.33 332.05 576.65 328.21 580.59 338.11 584.61 337.42 594.08 371.87 594.58 376.7 592.5 377.18 591.92 378.71 592.27 381.05 593.18 382.16 593.57 384.33 594.65 386.23 593.09 387.15 591.65 390.1 590.21 384.09 588.85 380.87 588.96 378.48 587.98 376.95 584.27 375.45 583.08 378.09 579.89 378.27 578.92 379.57 580.88 382.21 582.25 387.49 579.5 386.66 578.19 383.09 576.88 381.05 575.07 381.38 574.92 383.3 575.79 387.12 574.4 391.24 571.03 391.64 571.37 393.24 573.51 395.74 574.28 400.66 575.65 403.33 572.67 403.25 571.66 404.02 571.31 406.34 569.76 407.02 570.29 409.84 569.4 410.64 568.3 406.39 567.13 405.81 564.1 407.05 563.1 409.19 563.8 411.2 563.27 412.63 558.93 411.76 555.33 412.69 554.67 414.04 550.49 416.1 548.78 414.58 543.81 412.75 540.45 412.64 538.8 414.17 535.71 414.7 532.63 416.22 532.19 408.84 530.1 387.89 528.01 384.08 528.01 378.47 529.07 377.12 529.66 367.64 519.98 365.29 520 364.31 515.59 363.22 508.82 352.31 500.82 340.21 485.94 331.82 484.59 327.64 483.04 325.94 483.4 323.31 481.6 319.1 482.11 317.64 484.27 315.39 482.71 312.62 484.53 307.39 483 301.63 483.46 296.61 473.87 298.18 473.88 270.73 Z" id="cty-bristol" data-county="Bristol" class="county-shape" fill="#1d1d1d" />
<path d="M 121.86 97.38 143.54 102.17 143.77 106.75 144.9 106.99 143.75 112.32 144.52 119.27 166.06 124.76 169.35 126.56 169.41 131.05 182.01 129.13 181.03 143.27 199.23 140.66 207.38 138.37 208.37 138.55 228.58 135.44 229.86 143.32 253.94 139.6 254.25 141.82 255.76 144.79 255.13 145.74 255.85 149.19 255.67 151.58 256.24 153.71 257.54 155.77 257.3 158.79 257.84 160.61 257.18 162.11 258.13 162.97 258.96 165.46 258.93 168.31 258.02 170.29 257.53 174.26 260.06 172.77 260.91 171.48 262.43 171.25 264.23 169.68 265.16 165.79 267.17 162.77 269.5 162.17 272.26 160.41 273.84 160.35 275.82 175.31 278.73 174.93 290 172.62 289.53 175.57 289.95 177.67 291.61 178.67 289.65 181.2 289.45 185.04 288.37 184.92 288.68 189.1 289.79 189.26 289.91 191.79 288.23 191.36 287.52 192.36 281.79 193.25 279.41 196.88 277.05 197.03 276.56 194.69 274.17 195.3 261.99 199.62 259.71 200.85 259.62 202.4 258.33 203.51 257.22 202.91 255.59 204.64 256.62 206.69 256.54 208.53 248.68 209.77 246.95 195.98 220.21 199.59 204.83 201.54 202.54 200.82 201.03 199.15 200.08 196.93 198.47 195.89 198.14 194.35 199.53 190.48 201.84 186.86 203.54 185.45 203.87 184.1 203.38 180.7 200.76 179.17 195.95 182.79 190.9 196.53 188.4 197.17 187.86 199.84 183.3 200.8 184.15 208.06 183.99 209.68 163.15 204.49 163 199.25 160.8 199.21 160.58 193.37 156.32 193.87 156.18 190.86 146.35 192.06 144.84 194.49 143.01 199.19 134.22 192.27 141.38 184.54 140.68 164.45 138.55 164.75 138.41 161.99 125.54 160.83 115.09 169.99 113.65 172.3 111.41 170.38 109.34 171.26 108.21 170.85 103.55 166.29 101.31 164.86 100.35 149.37 101 146.88 112.92 149.91 113.54 147.52 118.59 123.94 118.95 124.02 120.7 114.74 123.28 102.19 120.98 101.67 121.86 97.38 Z" id="cty-hampshire" data-county="Hampshire" class="county-shape" fill="#1d1d1d" />
<path d="M 563.27 172.65 564.82 171.46 565.44 169.47 567.3 168.96 565.86 172.29 563.27 172.65 Z M 554.58 172.28 556.84 170.12 557.53 170.53 555.73 173.59 554.58 172.28 Z M 521.78 175.39 524.59 178.14 527.23 175.87 530.84 169.71 532.43 169.34 534.84 163.39 534.6 161.57 530.99 161 528.28 162.76 523.45 167.45 521.12 166.55 521.3 164.58 519.49 161.53 521.07 158.59 521.9 159.05 525.34 158.26 528.86 155.93 529.78 154.52 532.22 156.37 532.32 159.95 535.1 160.82 538.04 160.21 540.93 158.9 543.31 154.98 542.12 154.74 541.4 152.49 540.28 152.24 541.86 149.02 543.6 150.57 545.9 150.41 547.47 147.55 549.06 146.01 550.69 142.53 553.54 135.08 552.32 133.16 553.88 131.54 555.4 133.9 555.67 136.17 558.67 137.2 560.24 136.05 561.97 137.11 564.32 133.69 565.52 133.45 566.95 134.28 563.47 137.02 560.81 141.48 560.18 144.35 561.41 145.85 562.6 149.28 565.08 149.4 564.22 150.92 564.44 153.2 565.56 156.12 565.26 159.11 567.36 159.72 568.54 161.45 567.05 162.41 563.82 158.62 564.18 154.83 560.8 155.87 558.11 154.72 557.55 156.66 558.69 158.26 560.83 157.86 560.51 160.06 557.6 160 557.11 162.3 554.76 167.26 550.98 167.91 548.46 169.66 550.89 171.32 550.01 173.38 548.34 173.67 547.73 175.41 549.11 176.07 550.48 179.75 548.38 183.5 547.29 182.96 546.4 184.88 544.56 186.24 543.91 185.2 538.52 185.52 535.37 188.51 533.64 188.2 534.13 192.02 530.36 194.67 531.22 195.85 529.41 198.04 526.75 195.63 525.85 189.73 524.59 188.97 523.2 189.92 519.63 185.99 519.54 183.71 517.73 183.75 515.92 181.64 518.71 178.16 521.78 175.39 Z" id="cty-suffolk" data-county="Suffolk" class="county-shape" fill="#1d1d1d" />
<path d="M 569.15 179.36 571.23 178.6 572.54 177.31 572.63 175.64 574.55 176.49 572.64 178.68 572.2 180.77 569.15 179.36 Z M 578.68 186.77 578.86 187.48 582.18 187.41 581.83 189.62 584.22 192.23 585.48 191.33 585.88 189.06 584.33 185.71 583.89 182.82 585.31 182.66 583.38 178.42 583.26 176.89 579.57 175.71 578.15 176.51 575.14 174.75 578.76 173.87 581.35 174.43 582.76 173.06 584.26 173.08 584.6 175.98 586.93 180.45 588.97 183.33 591.36 185.61 595.8 185.83 597.22 186.26 594.66 186.66 592.81 187.94 591.81 191.86 593.62 193.04 590.92 194.18 593.77 202.07 596.86 205.73 605.21 199.08 605.73 194.07 606.85 191.33 608.5 189.67 610.18 189.5 610.99 190.81 610.56 192.69 611.47 193.52 611.61 195.37 614.51 199.3 616.31 199.94 618.24 202.51 622.15 204.42 620.94 210.28 621.84 212.74 621.96 215.07 623.76 216.74 628.5 225.69 633.32 233.02 638.66 238.85 639.06 240.96 637.1 242.54 636.94 244.9 638.1 250.16 640.89 254.54 643.28 257.19 645.38 260.56 648.33 263.87 647.26 264.6 644.73 263.29 642.85 264.65 640.79 267.44 639.18 267.15 638.68 263.56 641.22 264.87 644.67 261.94 643.86 260.05 637.86 251.63 636.41 251.54 635.27 252.8 633.42 253.09 632.32 254.31 631.85 259.01 632.81 261.71 632.06 263.07 630.31 263.77 628.51 261.62 626.5 261.46 622.87 263.22 623.38 265.61 625.61 265.98 625.87 269.31 627.67 271.02 629.63 271.43 630.97 273.69 636.17 279.55 637.61 280.48 640.73 280.66 637.12 273.62 635.78 271.95 636.61 270.67 638.12 272.93 640.99 279.34 642.81 282.23 644.39 283.13 646.24 282.97 648.47 280.83 651.69 280.13 655.25 283.23 655.66 284.2 660.59 287.12 661.97 288.7 660.09 289.97 660.22 292.84 663.37 298.05 663.8 305.24 664.93 307.25 663.43 312.66 662.62 314.46 661.34 315.49 661.11 317.53 661.62 320.12 662.47 321.58 656.28 328.87 647.7 332.66 641.34 336.13 643.83 340.26 641.39 343.64 641.43 344.86 639.92 346.56 639.13 349.68 635.28 353.46 632.28 357.59 631.81 357.21 636.21 350.97 634.45 350.15 631.02 346.83 629.01 347.96 627.03 346.33 624.99 346.42 622.16 344.43 620.47 345.34 621.72 346.86 620.01 348.29 621.65 351.23 623.74 352.99 623.26 354.58 620.3 354.4 622.37 358.04 623.13 360.77 621.68 360.64 619.9 358.67 617.61 357.6 616.53 355.76 614.08 356.87 615.51 361.02 613.44 360.98 612.23 362.11 613.85 365.06 613.81 369.25 612.61 369.32 611.09 372.78 609.41 369.93 606.25 369.21 605.27 369.91 602.17 367.71 599.35 368.79 599 370.54 603.18 372.84 604.2 375.65 601.96 377.72 600.31 378.16 599.31 376.96 596.36 377.87 594.58 376.7 594.08 371.87 584.61 337.42 580.59 338.11 576.65 328.21 553.33 332.05 555.9 325.85 550.97 320.82 559.99 311.66 564.92 307.49 564.13 303.23 561.82 294.08 560.75 291.17 559.6 290.85 559.94 288.35 556.56 283.88 547.85 277.05 540.75 237.53 558.15 228.18 558.11 227.94 575.22 218.79 577.33 198.6 575.63 197.37 573.63 192.9 573.35 190.41 576.75 189.5 576.67 187.02 578.68 186.77 Z" id="cty-plymouth" data-county="Plymouth" class="county-shape" fill="#1d1d1d" />
<path d="M 275.11 49.96 310 51.42 341.5 52.92 359.69 53.57 360.04 55.87 368.67 64.5 368.96 66.69 368.46 76.79 371.47 75.56 386.79 76.01 386.71 73.75 411.19 83.56 408.25 105.12 407.97 107.8 417.48 109.74 416.75 107.66 417.48 104.96 419.12 102.57 421.01 101.23 423.68 103.36 426.59 103.97 429.76 101.85 438.92 104.08 440.55 110.85 439.79 112.95 434.14 124.59 437.89 126.96 434.41 143.24 428.62 144.68 424.42 147.48 429.75 150.68 423.63 155.75 424.67 156.57 423.13 159.52 419.62 161.81 421.29 163.94 424.43 165.68 424.17 167.66 425.91 170.39 428.6 173.4 432.18 170.59 436.16 168.79 443.82 167.62 445.66 168.34 450.41 167.66 450.78 169.76 450.6 173.33 446.18 184.76 446.05 187.35 444.41 186.36 440.33 186.8 438.7 187.79 434.94 186.2 433.17 186.57 428.24 188.76 424.8 201.13 429.08 207.87 431.44 208.72 434.88 208.8 435.11 211.77 438.76 209.62 445.95 209.86 446.9 209.12 448.07 216.52 452.36 216.75 452.34 219.46 452.26 227.05 447.17 231.44 446.8 233.35 448.53 236.46 447.9 238.39 447.87 261.15 441.34 261.81 430.36 262.07 388.26 263.29 380.86 263.77 380.57 259.14 360.51 258.82 339.02 257.95 322.07 257.71 306 256.73 306.27 238.69 306.45 217.44 292.15 219.74 291.88 217.48 277.88 210.62 277.75 206.77 278.18 205.04 287.52 192.36 288.23 191.36 289.91 191.79 289.79 189.26 288.68 189.1 288.37 184.92 289.45 185.04 289.65 181.2 291.61 178.67 289.95 177.67 289.53 175.57 290 172.62 278.73 174.93 275.82 175.31 273.84 160.35 272.26 160.41 269.5 162.17 267.17 162.77 267.64 160.13 267.31 158.56 268.05 156.62 266.93 155.06 267.74 152.99 267.25 151.43 267.67 149.34 267.37 146.19 269.3 139.89 271.99 137.02 274.3 133.71 272.63 122.24 282.97 112.2 277.67 106.18 276.76 97.94 276.11 95.11 276.17 93.04 279.5 93.5 278.31 86.06 279.39 86.24 281.35 84.73 281.05 82.86 286.08 82.2 287.01 81.53 287.03 78.46 287.69 74.75 286.75 67.65 283.97 67.94 283.68 65.66 280.63 66.02 280.38 63.79 277.43 63.98 275.11 49.96 Z" id="cty-worcester" data-county="Worcester" class="county-shape" fill="#1d1d1d" />
<path d="M 501.36 46.16 503.49 44.38 508.24 43.14 517.51 45.83 516.51 29.97 520.99 24.57 524.48 22.53 528.25 20.75 543.29 25.19 545.58 17.17 547.57 12.47 550.46 9.38 564.65 6.33 572.46 1.62 575.95 1 578.61 1 582.27 2.15 590.55 8.56 594.45 6.15 597.41 5.11 597.36 11.59 598.54 19.87 599.47 22.23 600.28 32.13 603.08 42.47 607.71 53.2 608.12 55.06 606.96 56.31 606.92 59.12 609.5 60.78 612.08 61.15 613.88 62.03 617.16 65.5 617.61 66.6 622.48 68.85 625.7 69.55 629.54 65.28 631.05 64.47 631.74 62.97 635.77 59.4 637.39 59.45 639.07 58.39 640.59 60.11 641.19 63.15 640.77 67.88 644.64 68.4 646.79 67.98 646.46 70.54 647.65 71.5 646.96 73.1 647.19 75.54 644.64 75.6 641.83 77.5 641.39 79.18 638.83 81.07 638.83 83.74 638.12 86.02 635.84 88.45 633.97 91.44 631.73 92 631.47 90.92 633.42 86.66 632.98 85.1 631.5 83.44 629.04 83.94 629.1 85.19 627.39 87.35 628.18 88.15 626.6 90.41 625.53 90.94 624.31 92.98 622.19 93.55 621.72 94.45 617.46 94.81 615.14 93.84 611.37 95.17 609.97 97.81 606.94 98.53 603.19 97.02 601.06 97.91 598.59 100.14 596.85 100.96 593.8 101.14 589.82 102.2 588.57 103.07 586.98 101.97 585.41 103.18 583.8 106.02 584.61 106.83 587.11 105.58 587.86 106.43 587.41 108.43 584.93 109.41 583.27 111.88 583.02 113.88 585.6 114.96 587.93 110.86 589.45 109.98 592 111.16 592.73 113.75 590.71 116.33 591.66 118.21 594.64 114.61 594.19 119.2 592.96 120.08 591.67 118.92 589.37 119.3 584.56 122.77 583.08 125.35 582.91 126.94 581.37 128.14 578.31 126.37 575.24 126.45 573.98 128.19 572.38 129.1 571.87 134.42 573.85 137.77 574.63 137.33 577.26 138.09 579.56 140.36 577.8 141.42 575.78 139.33 572.15 140.99 572.31 136.98 571.2 133.33 571.61 130.24 570.46 128.98 565.52 133.45 564.32 133.69 561.97 137.11 560.24 136.05 558.67 137.2 555.67 136.17 555.4 133.9 553.88 131.54 552.32 133.16 546 123.58 546.33 120.84 547.97 120.04 549.13 117.87 548.27 116.31 550.22 114.64 549.19 112.32 548.84 108.82 545.2 109.46 542.97 109.32 541.29 107.43 542.17 100 543.5 98.13 545.19 94.59 546.83 95.44 548.65 94.71 549.99 95.67 551.56 94.52 550.29 91.11 544.66 84.92 540.96 85.59 527.89 87.15 526.17 85.69 524.96 82.97 522.76 83.04 521.4 87.51 517.76 84.43 519.86 81.98 501.21 69.91 504.22 68.35 505.11 65.83 501.36 46.16 Z" id="cty-essex" data-county="Essex" class="county-shape" fill="#1d1d1d" />
<path d="M 639.13 349.68 639.92 346.56 641.43 344.86 641.39 343.64 643.83 340.26 641.34 336.13 647.7 332.66 656.28 328.87 662.47 321.58 663.53 323.38 666.98 327.47 672.14 331.21 672.26 332.51 677.33 336.13 690.6 341.09 698.92 342.66 716.77 343.72 721.35 346.23 719.91 347.26 718.45 345.25 717.34 346.42 711.5 345.45 708.53 344.62 706.68 344.95 697.26 343.91 696.99 345.02 694.73 345.34 694.52 346.8 697.47 347.85 701.88 350.65 701.84 352.69 703.1 353.43 706.51 353.74 709.53 352.93 709.76 350.74 711.46 351.19 714.42 350.96 715.77 351.48 717.16 350.76 720.8 350.96 722.9 350.05 727.02 351.54 729.04 349.45 730.3 347.1 729.05 345.6 734.51 340.9 740.46 338.12 741.68 338.52 749.23 336.49 751.09 335.54 755.46 335.84 761.22 333.44 764.12 332.67 766.46 331.45 768.28 331.44 777.05 326.96 780.61 322.88 781.6 320.56 781.3 311.51 780.09 300.24 782.01 297.12 781.38 296.12 777.9 295.82 776.59 294.41 777.25 293.26 778.94 292.91 778.97 291.49 776.22 289.83 774.67 287.24 775.72 284.57 771.79 284.42 769.58 285.09 768.12 286.44 768.75 288.34 767.28 289.99 767.33 293.58 765.7 293.57 765.29 281.96 764.54 280.57 764.29 267.98 762.75 260.08 761.39 256.26 760.01 253.91 757.19 250.74 753.81 248.39 748.08 245.71 746.56 245.29 743.38 246.14 741.46 247.16 739.63 248.97 737.88 253.2 734.84 254.93 732.56 250.46 730.32 248.07 726.55 245.2 728.13 242.45 730.87 240.7 735.02 239.65 738.93 239.46 745.43 240.47 755.31 243.59 762.79 247.35 768.22 251.52 773.91 258.19 778.86 266.47 784.82 278.35 788.92 289.6 794.47 309.36 795.48 316.04 796.29 320 798.76 340.34 799 350.14 798.64 355.08 797.97 359.07 795.81 363.24 795.81 366 795.03 367.24 793.07 373.75 792.9 376.57 790.84 379.11 788.86 379.24 787.28 380.27 786.18 384.43 786.04 388.31 786.43 396.3 785.63 398.47 783 400.59 781.33 399.61 780.76 397.49 781.84 395.4 783.99 392.99 785.05 389.87 785.56 386.15 785.28 381.79 786.8 378.84 786.69 376.89 788.44 373.53 788.74 371.11 789.92 369.12 788.71 366.67 786.53 365.37 784.02 362.74 781.61 361.47 780 361.38 776.63 362.7 774.13 362.84 769.32 363.81 768.52 364.45 766.22 364.01 763.25 364.4 757.19 366.68 751.75 368.29 745.6 367.91 739.61 369.23 739 370.36 736.97 370.88 734.16 372.73 728.35 375.2 726.07 377.56 725.35 380.51 723.56 380.52 723.15 376.09 721.91 373.97 718.3 373.34 716.15 374.19 716.08 375.07 712.52 376.33 711.38 374.84 707.67 373.15 704.64 373.68 702.7 374.79 700.63 379.35 698.57 380.73 693.79 382.28 692 382.01 687.92 382.85 685.58 382.7 684.4 384.59 683.83 386.76 680.32 392.77 677.01 396.79 673.22 398.76 666.71 399.76 665.31 400.45 663 399.12 661.21 399.09 658.33 400.04 655.18 400.52 653.67 401.32 650.69 401.09 648.9 402.01 646.83 401.76 641.79 403.23 639.56 405.01 636.7 410.29 634.07 409.37 632.99 407.68 630.22 408.4 629.85 405.96 630.67 404.94 632.23 406.09 634.08 404.91 634.41 402.79 636.16 401.75 637.12 399.79 637.16 395.24 639.64 393.06 639.76 389.86 637.37 383.27 637.46 381.79 638.6 380.78 638.74 378.93 640.1 377.45 638.55 374.35 638.67 372.66 637.63 371.05 641.43 370.17 644.36 367.65 641.83 365.76 639.83 367.04 637.31 366 638.03 363.81 641.54 363.74 640.75 360.9 636.05 360.5 635.97 359.62 638.56 356.8 641.78 356.02 644.16 354.73 642.84 351.02 639.13 349.68 Z" id="cty-barnstable" data-county="Barnstable" class="county-shape" fill="#1d1d1d" />
<path d="M 115.09 169.99 125.54 160.83 138.41 161.99 138.55 164.75 140.68 164.45 141.38 184.54 134.22 192.27 143.01 199.19 144.84 194.49 146.35 192.06 156.18 190.86 156.32 193.87 160.58 193.37 160.8 199.21 163 199.25 163.15 204.49 183.99 209.68 184.15 208.06 183.3 200.8 187.86 199.84 188.4 197.17 190.9 196.53 195.95 182.79 200.76 179.17 203.38 180.7 203.87 184.1 203.54 185.45 201.84 186.86 199.53 190.48 198.14 194.35 198.47 195.89 200.08 196.93 201.03 199.15 202.54 200.82 204.83 201.54 220.21 199.59 246.95 195.98 248.68 209.77 256.54 208.53 256.62 206.69 255.59 204.64 257.22 202.91 258.33 203.51 259.62 202.4 259.71 200.85 261.99 199.62 274.17 195.3 276.56 194.69 277.05 197.03 279.41 196.88 281.79 193.25 287.52 192.36 278.18 205.04 277.75 206.77 277.88 210.62 291.88 217.48 292.15 219.74 306.45 217.44 306.27 238.69 306 256.73 280.68 256.11 265.63 255.89 234.59 254.94 218.69 254.67 208.64 255.79 206.59 257.39 201.12 257.23 200.92 255.49 193.09 254.91 181.36 253.44 168.03 253.42 168.92 255.23 165.61 261.9 165.46 263.3 154.3 264.75 155.19 253.14 144.05 252.6 113.82 251.81 101.87 251.24 101.18 248.97 101.66 245.93 100.11 244.61 100.93 243.19 100.14 242.01 97.76 234.92 97.44 231.35 97.95 229.71 100.04 228.5 100.5 227.45 99.38 225.82 98.7 223.29 98.5 218.81 106.51 220.31 113.88 188.27 114.42 188.38 115.09 169.99 Z" id="cty-hampden" data-county="Hampden" class="county-shape" fill="#1d1d1d" />
<path d="M 597.22 186.26 600.1 187.14 605.22 189.79 606.85 191.33 605.73 194.07 605.21 199.08 596.86 205.73 593.77 202.07 590.92 194.18 593.62 193.04 591.81 191.86 592.81 187.94 594.66 186.66 597.22 186.26 Z M 523.45 167.45 528.28 162.76 530.99 161 534.6 161.57 534.84 163.39 532.43 169.34 530.84 169.71 527.23 175.87 524.59 178.14 521.78 175.39 518.62 172.27 523.45 167.45 Z M 452.34 219.46 455.48 219.04 459.9 214.05 462.99 212.7 464.46 213.08 469.18 212.87 468.7 210 474.48 208.48 478.12 207.79 482.07 206.31 480.3 204.32 480.77 202.36 483.29 201.47 482.76 199.21 485.26 196.56 485.31 192.98 484.63 191.86 491.19 192.08 489.95 185.38 486.56 177.41 485.2 172.76 498.44 168.22 503.58 170.31 505.43 170.08 507.69 170.95 508.04 174.12 511.02 174.73 512.82 179.68 515.92 181.64 517.73 183.75 519.54 183.71 519.63 185.99 523.2 189.92 524.59 188.97 525.85 189.73 526.75 195.63 529.41 198.04 531.22 195.85 530.36 194.67 534.13 192.02 533.64 188.2 535.37 188.51 538.52 185.52 543.91 185.2 544.56 186.24 546.4 184.88 547.29 182.96 548.38 183.5 550.48 179.75 549.11 176.07 551.55 176.25 553.13 177 555.13 176.2 557.13 176.18 557.27 178.01 555.47 179.3 553.36 179.91 554.75 182.4 558.7 184.6 559.23 186.26 564.26 187.37 565.58 185.82 569.65 184.5 569.17 187.92 567.84 189.74 568.28 192.01 570.97 190.58 572.52 189.17 574.5 188.98 575.02 187.2 574.67 185.28 576.72 184.44 578.68 186.77 576.67 187.02 576.75 189.5 573.35 190.41 573.63 192.9 575.63 197.37 577.33 198.6 575.22 218.79 558.11 227.94 558.15 228.18 540.75 237.53 494.62 261.92 477.7 270.66 473.88 270.73 473.88 260.66 447.87 261.15 447.9 238.39 448.53 236.46 446.8 233.35 447.17 231.44 452.26 227.05 452.34 219.46 Z" id="cty-norfolk" data-county="Norfolk" class="county-shape" fill="#1d1d1d" />
<path d="M 112.34 41.9 159.38 44.05 201.78 46.25 236.5 47.98 275.11 49.96 277.43 63.98 280.38 63.79 280.63 66.02 283.68 65.66 283.97 67.94 286.75 67.65 287.69 74.75 287.03 78.46 287.01 81.53 286.08 82.2 281.05 82.86 281.35 84.73 279.39 86.24 278.31 86.06 279.5 93.5 276.17 93.04 276.11 95.11 276.76 97.94 277.67 106.18 282.97 112.2 272.63 122.24 274.3 133.71 271.99 137.02 269.3 139.89 267.37 146.19 267.67 149.34 267.25 151.43 267.74 152.99 266.93 155.06 268.05 156.62 267.31 158.56 267.64 160.13 267.17 162.77 265.16 165.79 264.23 169.68 262.43 171.25 260.91 171.48 260.06 172.77 257.53 174.26 258.02 170.29 258.93 168.31 258.96 165.46 258.13 162.97 257.18 162.11 257.84 160.61 257.3 158.79 257.54 155.77 256.24 153.71 255.67 151.58 255.85 149.19 255.13 145.74 255.76 144.79 254.25 141.82 253.94 139.6 229.86 143.32 228.58 135.44 208.37 138.55 207.38 138.37 199.23 140.66 181.03 143.27 182.01 129.13 169.41 131.05 169.35 126.56 166.06 124.76 144.52 119.27 143.75 112.32 144.9 106.99 143.77 106.75 143.54 102.17 121.86 97.38 127.67 72.09 127.36 69.14 126.74 68.04 126.95 64.67 125.36 64.28 122.21 66.01 118.52 62.96 119.33 60.83 122.46 60.22 122.07 58.58 123.39 57.66 125.09 58.16 127.57 56.96 127.33 55.01 128.3 52.95 117.66 53.91 111.98 53.39 112.34 41.9 Z" id="cty-franklin" data-county="Franklin" class="county-shape" fill="#1d1d1d" />
<path d="M 603.08 427.38 605.01 424.31 606.34 424.16 608.18 421.55 610.13 421.79 611.78 418.59 614.71 417.6 616.43 414.93 618.56 413.61 620.23 413.91 624.66 409.17 626.39 408.94 627.1 410.74 629.82 411.09 631.83 409.58 632.65 411.06 631.12 412.59 629.26 413.43 628.4 412.75 625.42 414.37 626 415.76 624.28 417.62 619.33 418.79 616.47 421.52 614.34 421.17 613.39 422.99 614.6 424.73 613.39 426.54 611.88 427.58 609.99 427.6 606.86 430.95 604.7 431.08 603.52 429.83 603.08 427.38 Z M 597.94 486.89 600.73 486.7 601.96 486.03 604.81 487.16 604.23 489.84 599.43 489.04 597.94 486.89 Z M 596.22 460.7 597.32 458.85 600.46 458.77 602.15 458.11 604.86 458.67 608.7 460.42 610.57 460 611.92 458.77 614.2 454.66 618.25 449.9 619 447.28 620.13 445.39 621.81 445.04 622.85 443.32 624.47 442.05 624.66 440.08 625.76 438.95 626.98 434.51 629.45 433.64 630.12 432.3 633.49 431.96 634.8 429.33 634.97 427.8 636.18 426.46 640.1 425.93 645.03 422.21 648.71 419.85 649.86 420.2 650.49 423.91 649.6 426.1 649.78 427.91 651.38 427.73 655.19 424 656.87 423.1 657.79 423.71 660.09 428.51 660.2 431.37 659.64 435.11 661.49 439.59 663.6 441.53 665.8 442.75 668.27 443.11 670.67 444.14 671.73 446.59 672 448.56 674.37 449.06 675.77 448.25 678.61 445.25 678.27 441.51 680.3 438.38 683.3 437.88 684.33 445.1 683.71 449.9 684.04 457.9 683.15 459.05 680.68 459.78 676.37 459.56 673.54 459.86 654.61 459.33 638.95 460.4 629.44 461.29 625.24 462.1 619.99 463.79 616.79 465.69 613.07 469.08 612.23 471.1 612.1 473.57 610.53 474.4 604.55 470.5 600.62 466.64 596.22 460.7 Z M 595.62 429.15 597.37 427.62 600.05 427.43 602.83 430.1 601.45 431.17 599.56 431.37 597.78 432.59 596.43 432.4 595.36 430.27 595.62 429.15 Z M 581.2 436.76 582.04 434.75 586.27 435.28 586.68 433.67 590.41 432.27 592.18 432.84 593.82 435.14 590.68 437.77 588.76 438.39 584.68 438.26 581.87 438.67 581.2 436.76 Z M 571.25 440.4 572.58 440.65 573.06 438.61 575.07 437.6 576.1 435.58 577.85 437.52 575.62 440.73 571.36 442.41 571.25 440.4 Z" id="cty-dukes" data-county="Dukes" class="county-shape" fill="#1d1d1d" />
<path d="M 732.51 477.55 736.82 479.3 737.59 480.46 739.83 480.16 741.58 479.02 742.03 477.14 740.33 474.29 743.07 474.75 757.15 474.72 761.64 473.61 766.66 473 771 470.05 774.65 466.13 777.88 460.79 779.32 454.4 779.37 452.01 776.93 448.96 774.44 447.62 775.05 445.91 780.19 451.88 794.18 478.6 794.28 482.84 793.44 485.59 791.05 488.28 785.08 490.36 782.03 491 773.44 489.34 766.61 489.23 762.8 490.55 758.7 490.08 746.98 485.76 735.41 480.08 732.51 477.55 Z M 722.68 470.27 725.9 469.94 729.61 471.46 731.17 474.53 729.43 476.7 728.32 475.41 724.66 472.85 722.68 470.27 Z M 715.44 462.74 716.47 462.02 719.24 462.17 719.52 463.4 715.89 463.83 715.44 462.74 Z" id="cty-nantucket" data-county="Nantucket" class="county-shape" fill="#1d1d1d" />
<path d="M 112.34 41.9 111.98 53.39 117.66 53.91 128.3 52.95 127.33 55.01 127.57 56.96 125.09 58.16 123.39 57.66 122.07 58.58 122.46 60.22 119.33 60.83 118.52 62.96 122.21 66.01 125.36 64.28 126.95 64.67 126.74 68.04 127.36 69.14 127.67 72.09 121.86 97.38 120.98 101.67 123.28 102.19 120.7 114.74 118.95 124.02 118.59 123.94 113.54 147.52 112.92 149.91 101 146.88 100.35 149.37 101.31 164.86 103.55 166.29 108.21 170.85 109.34 171.26 111.41 170.38 113.65 172.3 115.09 169.99 114.42 188.38 113.88 188.27 106.51 220.31 98.5 218.81 98.7 223.29 99.38 225.82 100.5 227.45 100.04 228.5 97.95 229.71 97.44 231.35 97.76 234.92 100.14 242.01 100.93 243.19 100.11 244.61 101.66 245.93 101.18 248.97 101.87 251.24 62.63 248.98 48.26 248.06 17.5 246.31 3.25 246.25 1 235.27 16.71 182.54 38.34 109.5 59.14 39.44 112.34 41.9 Z" id="cty-berkshire" data-county="Berkshire" class="county-shape" fill="#1d1d1d" />
</g>
</svg>